{"accessors" : [{"bufferView" : 0, "byteOffset" : 0, "componentType" : 5123, "count" : 3798, "type" : "SCALAR", "max" : [3174], "min" : [0]}, {"bufferView" : 1, "byteOffset" : 0, "componentType" : 5126, "count" : 3175, "type" : "VEC3", "max" : [0.30232200026512146, 0.4416620135307312, 0.30663299560546875], "min" : [-0.3092289865016937, 0.0006360000115819275, -0.31009599566459656], "name" : "POSITION"}, {"bufferView" : 1, "byteOffset" : 12, "componentType" : 5126, "count" : 3175, "type" : "VEC2", "max" : [0.7638270258903503, -0.12885600328445435], "min" : [0.550000011920929, -0.8465909957885742], "name" : "TEXCOORD_0"}, {"bufferView" : 1, "byteOffset" : 20, "componentType" : 5126, "count" : 3175, "type" : "VEC3", "max" : [0.9984853267669678, 1.0000044107437134, 1.0000044107437134], "min" : [-0.997696578502655, -0.9997618794441223, -0.9992935061454773], "name" : "NORMAL"}], "asset" : {"generator" : "Aspose.3D 22.1", "version" : "2.0"}, "buffers" : [{"uri" : "data:application/octet-stream;base64,", "byteLength" : 129140}], "bufferViews" : [{"buffer" : 0, "byteOffset" : 0, "byteLength" : 7596, "target" : 34963}, {"buffer" : 0, "byteOffset" : 7600, "byteLength" : 121536, "byteStride" : 32, "target" : 34962}], "images" : [{"uri" : "texture\\\\LowPoly_paletta.png"}], "materials" : [{"name" : "", "pbrMetallicRoughness" : {"baseColorFactor" : [0.8, 0.8, 0.8, 1], "baseColorTexture" : {"index" : 0, "texCoord" : 0}, "metallicFactor" : 0, "roughnessFactor" : 0}, "emissiveFactor" : [0, 0, 0], "alphaMode" : "OPAQUE", "doubleSided" : false}], "meshes" : [{"primitives" : [{"attributes" : {"POSITION" : 1, "TEXCOORD_0" : 2, "NORMAL" : 3}, "indices" : 0, "material" : 0, "mode" : 4}], "name" : ""}], "nodes" : [{"mesh" : 0, "name" : "Pumpkin_Cylinder.001"}], "samplers" : [{"magFilter" : 9729, "minFilter" : 9729, "wrapS" : 10497, "wrapT" : 10497}], "scene" : 0, "scenes" : [{"nodes" : [0]}], "textures" : [{"sampler" : 0, "source" : 0}]}